arm28_optimize_states
version=1
nRows=30
nColumns=21
inDegrees=yes

# SIMM Motion File Header:
name arm28_optimize_states
datacolumns 21
datarows 30
otherdata 1
range 0.45634033 0.58538027
endheader
time	r_shoulder_elev	r_elbow_flex	r_shoulder_elev_u	r_elbow_flex_u	TRIlong.activation	TRIlong.fiber_length	TRIlat.activation	TRIlat.fiber_length	TRImed.activation	TRImed.fiber_length	BIClong.activation	BIClong.fiber_length	BICshort.activation	BICshort.fiber_length	BRA.activation	BRA.fiber_length	DeltAnt.activation	DeltAnt.fiber_length	DeltPost.activation	DeltPost.fiber_length
      0.45634033	      6.32392144	     -3.45185348	     10.05959538	    -58.00474457	      0.01010062	      0.13981638	      0.01010062	      0.06958703	      0.01010062	      0.06462416	      0.01018117	      0.14422620	      0.01021280	      0.14801152	      0.01010508	      0.08680113	      0.01010062	      0.15844633	      0.01021365	      0.11416238
      0.46069520	      6.36739591	     -3.70375028	      9.90646105	    -57.67906629	      0.01009513	      0.13976809	      0.01009513	      0.06951017	      0.01009513	      0.06454778	      0.01017128	      0.14424404	      0.01020119	      0.14804208	      0.01009935	      0.08678470	      0.01009513	      0.15841949	      0.01020199	      0.11419764
      0.46597117	      6.41917829	     -4.00700834	      9.72347423	    -57.27763584	      0.01008888	      0.13971055	      0.01008888	      0.06941859	      0.01008888	      0.06445676	      0.01016003	      0.14426486	      0.01018797	      0.14807805	      0.01009282	      0.08676443	      0.01008888	      0.15838753	      0.01018872	      0.11423961
      0.46994014	      6.45749977	     -4.23373283	      9.58712012	    -56.96965794	      0.01008445	      0.13966798	      0.01008445	      0.06935090	      0.01008445	      0.06438953	      0.01015205	      0.14427995	      0.01017860	      0.14810437	      0.01008820	      0.08674889	      0.01008445	      0.15836384	      0.01017931	      0.11427064
      0.47390911	      6.49528310	     -4.45922605	      9.45246693	    -56.65755417	      0.01008025	      0.13962602	      0.01008025	      0.06928415	      0.01008025	      0.06432322	      0.01014448	      0.14429454	      0.01016970	      0.14813006	      0.01008380	      0.08673314	      0.01008025	      0.15834050	      0.01017038	      0.11430123
      0.47854239	      6.53871767	     -4.72088005	      9.29656526	    -56.28613009	      0.01007560	      0.13957783	      0.01007560	      0.06920747	      0.01007560	      0.06424703	      0.01013611	      0.14431098	      0.01015986	      0.14815926	      0.01007895	      0.08671449	      0.01007560	      0.15831366	      0.01016051	      0.11433636
      0.48317568	      6.58143423	     -4.98079781	      9.14272712	    -55.90848852	      0.01007122	      0.13953052	      0.01007122	      0.06913217	      0.01007122	      0.06417222	      0.01012822	      0.14432676	      0.01015060	      0.14818761	      0.01007437	      0.08669556	      0.01007122	      0.15828725	      0.01015121	      0.11437089
      0.48726997	      6.61859098	     -5.20900943	      9.00788102	    -55.56820552	      0.01006756	      0.13948946	      0.01006756	      0.06906678	      0.01006756	      0.06410728	      0.01012164	      0.14434017	      0.01014287	      0.14821197	      0.01007055	      0.08667860	      0.01006756	      0.15826427	      0.01014344	      0.11440091
      0.49228356	      6.66334316	     -5.48654689	      8.84484448	    -55.14438000	      0.01006334	      0.13944015	      0.01006334	      0.06898815	      0.01006334	      0.06402915	      0.01011403	      0.14435593	      0.01013393	      0.14824091	      0.01006614	      0.08665757	      0.01006334	      0.15823659	      0.01013447	      0.11443704
      0.49603113	      6.69626290	     -5.69260027	      8.72385180	    -54.82117076	      0.01006035	      0.13940400	      0.01006035	      0.06893049	      0.01006035	      0.06397190	      0.01010866	      0.14436722	      0.01012762	      0.14826193	      0.01006303	      0.08664164	      0.01006035	      0.15821621	      0.01012813	      0.11446361
      0.50074473	      6.73702853	     -5.95003544	      8.57344410	    -54.40809745	      0.01005680	      0.13935940	      0.01005680	      0.06885922	      0.01005680	      0.06390110	      0.01010226	      0.14438085	      0.01012010	      0.14828760	      0.01005932	      0.08662141	      0.01005680	      0.15819099	      0.01012059	      0.11449649
      0.50479032	      6.77145373	     -6.16941913	      8.44526842	    -54.04638400	      0.01005392	      0.13932191	      0.01005392	      0.06879925	      0.01005392	      0.06384155	      0.01009707	      0.14439205	      0.01011401	      0.14830898	      0.01005630	      0.08660384	      0.01005392	      0.15816967	      0.01011446	      0.11452423
      0.50979047	      6.81328900	     -6.43852529	      8.28869850	    -53.59135562	      0.01005055	      0.13927658	      0.01005055	      0.06872659	      0.01005055	      0.06376937	      0.01009101	      0.14440525	      0.01010690	      0.14833457	      0.01005279	      0.08658192	      0.01005055	      0.15814377	      0.01010732	      0.11455794
      0.51359509	      6.84459898	     -6.64174997	      8.17027410	    -53.23786176	      0.01004814	      0.13924286	      0.01004814	      0.06867246	      0.01004814	      0.06371564	      0.01008666	      0.14441483	      0.01010178	      0.14835343	      0.01005027	      0.08656506	      0.01004814	      0.15812437	      0.01010219	      0.11458315
      0.51836637	      6.88323053	     -6.89469073	      8.02337819	    -52.78699857	      0.01004527	      0.13920151	      0.01004527	      0.06860590	      0.01004527	      0.06364953	      0.01008150	      0.14442629	      0.01009572	      0.14837635	      0.01004727	      0.08654375	      0.01004527	      0.15810044	      0.01009610	      0.11461425
      0.52241730	      6.91548142	     -7.10773835	      7.89937647	    -52.39615196	      0.01004297	      0.13916724	      0.01004297	      0.06855062	      0.01004297	      0.06359466	      0.01007735	      0.14443554	      0.01009085	      0.14839517	      0.01004487	      0.08652550	      0.01004297	      0.15808045	      0.01009122	      0.11464019
      0.52741539	      6.95458421	     -7.36839620	      7.74803515	    -51.90506218	      0.01004029	      0.13912602	      0.01004029	      0.06848391	      0.01004029	      0.06352841	      0.01007253	      0.14444636	      0.01008519	      0.14841760	      0.01004207	      0.08650282	      0.01004029	      0.15805622	      0.01008553	      0.11467163
      0.53136851	      6.98497752	     -7.57280114	      7.62888074	    -51.50814891	      0.01003829	      0.13909425	      0.01003829	      0.06843238	      0.01003829	      0.06347727	      0.01006893	      0.14445445	      0.01008096	      0.14843473	      0.01003999	      0.08648473	      0.01003829	      0.15803736	      0.01008129	      0.11469606
      0.53613448	      7.02099716	     -7.81713100	      7.48674732	    -51.02125293	      0.01003601	      0.13905695	      0.01003601	      0.06837164	      0.01003601	      0.06341695	      0.01006483	      0.14446368	      0.01007614	      0.14845468	      0.01003761	      0.08646281	      0.01003601	      0.15801503	      0.01007645	      0.11472500
      0.54038080	      7.05252049	     -8.03284579	      7.36059917	    -50.57779299	      0.01003409	      0.13902463	      0.01003409	      0.06831884	      0.01003409	      0.06336456	      0.01006138	      0.14447142	      0.01007209	      0.14847181	      0.01003560	      0.08644314	      0.01003409	      0.15799546	      0.01007238	      0.11475032
      0.54462711	      7.08351045	     -8.24666067	      7.23574167	    -50.12685034	      0.01003228	      0.13899319	      0.01003228	      0.06826727	      0.01003228	      0.06331336	      0.01005811	      0.14447871	      0.01006825	      0.14848834	      0.01003371	      0.08642338	      0.01003228	      0.15797624	      0.01006853	      0.11477519
      0.54945763	      7.11812112	     -8.48753824	      7.09419223	    -49.60235054	      0.01003033	      0.13895848	      0.01003033	      0.06821008	      0.01003033	      0.06325660	      0.01005461	      0.14448649	      0.01006414	      0.14850643	      0.01003168	      0.08640080	      0.01003033	      0.15795475	      0.01006439	      0.11480297
      0.55428814	      7.15205088	     -8.72585584	      6.95430422	    -49.06792759	      0.01002850	      0.13892491	      0.01002850	      0.06815450	      0.01002850	      0.06320144	      0.01005131	      0.14449371	      0.01006027	      0.14852378	      0.01002977	      0.08637812	      0.01002850	      0.15793370	      0.01006051	      0.11483019
      0.55860694	      7.18181546	     -8.93671887	      6.82926381	    -48.57868547	      0.01002696	      0.13889586	      0.01002696	      0.06810618	      0.01002696	      0.06315348	      0.01004854	      0.14449970	      0.01005701	      0.14853866	      0.01002816	      0.08635776	      0.01002696	      0.15791520	      0.01005724	      0.11485405
      0.56292575	      7.21104253	     -9.14545063	      6.70581057	    -48.08182614	      0.01002550	      0.13886772	      0.01002550	      0.06805911	      0.01002550	      0.06310678	      0.01004591	      0.14450528	      0.01005392	      0.14855297	      0.01002663	      0.08633735	      0.01002550	      0.15789706	      0.01005414	      0.11487748
      0.56724455	      7.23973726	     -9.35201443	      6.58239344	    -47.57398755	      0.01002412	      0.13884050	      0.01002412	      0.06801331	      0.01002412	      0.06306133	      0.01004343	      0.14451044	      0.01005101	      0.14856671	      0.01002519	      0.08631690	      0.01002412	      0.15787922	      0.01005121	      0.11490047
      0.57156336	      7.26790120	     -9.55636565	      6.46028868	    -47.05778325	      0.01002282	      0.13881418	      0.01002282	      0.06796877	      0.01002282	      0.06301715	      0.01004108	      0.14451520	      0.01004825	      0.14857989	      0.01002383	      0.08629641	      0.01002282	      0.15786173	      0.01004844	      0.11492304
      0.57640976	      7.29887924	     -9.78299823	      6.32350094	    -46.46562598	      0.01002144	      0.13878573	      0.01002144	      0.06792029	      0.01002144	      0.06296904	      0.01003859	      0.14452007	      0.01004533	      0.14859404	      0.01002239	      0.08627341	      0.01002144	      0.15784246	      0.01004551	      0.11494785
      0.58125616	      7.32919705	    -10.00673224	      6.18847572	    -45.86296040	      0.01002014	      0.13875842	      0.01002014	      0.06787339	      0.01002014	      0.06292252	      0.01003626	      0.14452447	      0.01004259	      0.14860751	      0.01002103	      0.08625040	      0.01002014	      0.15782363	      0.01004276	      0.11497212
      0.58538027	      7.35448180	    -10.19479858	      6.07332575	    -45.33830342	      0.01001910	      0.13873607	      0.01001910	      0.06783474	      0.01001910	      0.06288418	      0.01003438	      0.14452784	      0.01004038	      0.14861845	      0.01001995	      0.08623082	      0.01001910	      0.15780789	      0.01004055	      0.11499236
